<?xml version="1.0" standalone="no"?><!DOCTYPE svg PUBLIC "-//W3C//DTD SVG 1.1//EN" "http://www.w3.org/Graphics/SVG/1.1/DTD/svg11.dtd"><svg class="icon" height="512" viewBox="0 0 1024 1024" version="1.1" xmlns="http://www.w3.org/2000/svg"><path d="M512.478 2.126c280.831 0 508.489 227.658 508.489 508.489s-227.659 508.487-508.489 508.487-508.489-227.657-508.489-508.487 227.658-508.489 508.489-508.489z" fill="#3ebac4" /><path d="M750.37 323.3l10.284 495.222-209.097-61.239-11.998-85.43 210.811-348.553zM299.612 323.3l-17.139 456.195 217.666-22.212-8.57-87.138-191.957-346.845z" fill="#312B28" /><path d="M513.045 893.696c102.912 0 197.625-34.874 273.174-93.327-10.312-13.926-28.468-31.951-59.757-47.215-46.992-22.925-101.204-23.568-101.204-23.568l-116.426 34.576-89.248-35.569s-60.872 3.864-104.446 29.409c-30.467 17.859-52.313 39.86-62.861 51.622 73.403 52.848 163.413 84.072 260.768 84.072z" fill="#F7F9FB" /><path d="M471.002 653.059h97.693v66.634l109.69 17.087s-69.658 46.132-161.108 46.132c-79.232 0-142.255-47.84-142.255-47.84l95.979-17.087v-64.926z" fill="#EFD0AF" /><path d="M323.608 272.041l-3.43 97.39s4.974 78.656 15.427 129.854c7.452 36.508 21.046 66.023 46.275 99.099 36.603 47.987 103.707 83.644 137.111 83.721 35.171 0.079 92.385-30.565 128.545-73.471 21.906-25.994 54.454-70.525 59.986-104.225 11.455-69.778 18.853-184.527 18.853-184.527l-65.13-87.139-337.637 39.298z" fill="#F4DBBA" /><path d="M510.422 123.395c-176.402 0-210.81 147.697-210.81 194.779 0 72.929-6.857 174.277-6.857 174.277s17.831-69.482 18.853-64.927c2.717 12.083 2.987 41.15 3.429 41.006 2.919-0.956 29.136 13.668 29.136 13.668l-1.713-111.058s51.394 1.884 94.266-18.796c36.271-17.495 41.134-85.428 41.134-85.428s22.134 78.382 73.697 90.555c51.563 12.174 135.762-12.525 143.969 23.92 11.586 51.449 4.969 74.484 1.834 107.822-0.050 0.527 22.158-12.141 22.158-12.141s3.771-30.617 5.143-41.005c2.437-18.43 11.983 46.675 11.998 46.131 0.467-14.683 13.711-82.072 13.711-157.189 0-97.446-85.123-201.614-239.948-201.614z" fill="#312B28" /><path d="M332.176 429.233c0.13-0.041-8.045-21.493-25.708-10.252-10.002 6.367-10.848 35.789-6.856 51.258 5.075 19.673 14.139 26.733 22.28 32.462 6.676 4.253 17.131 3.708 17.139 3.417l-6.855-76.885zM715.93 414.233c-0.129-0.042 8.285-2.085 18.598 3.436 10.357 5.544 10.7 35.981 6.764 51.537-5.007 19.781-13.949 26.879-21.98 32.641-6.586 4.273-18.639 4.563-18.646 4.273l15.264-91.887z" fill="#F4DBBA" /><path d="M519.185 604.877c-0.016 0-0.034 0-0.052 0-16.498 0-31.536-6.247-42.879-16.505-0.894-0.803-1.488-2.035-1.488-3.405 0-1.199 0.455-2.291 1.201-3.114 1.706-1.887 4.67-2.032 6.561-0.341 20.202 18.147 53.295 18.129 73.424-0.127 0.822-0.752 1.922-1.212 3.129-1.212 1.369 0 2.6 0.592 3.45 1.535 0.751 0.828 1.209 1.926 1.209 3.132 0 1.368-0.59 2.599-1.529 3.451-11.823 10.695-27.097 16.586-43.026 16.586z" fill="#E2C6A3" /></svg>